<?xml version="1.0" encoding="utf-8"?>
<!-- Generator: Adobe Illustrator 21.1.0, SVG Export Plug-In . SVG Version: 6.00 Build 0)  -->
<svg version="1.1" id="Layer_1" xmlns="http://www.w3.org/2000/svg" xmlns:xlink="http://www.w3.org/1999/xlink" x="0px" y="0px"
	 viewBox="0 0 161 35" style="enable-background:new 0 0 161 35;" xml:space="preserve">
<style type="text/css">
	.st0{fill:#FFFFFF;}
	.st1{fill:#83C2B8;}
</style>
<g>
	<path class="st0" d="M4.8,14.9c0,0.5-0.4,1-1,1c-0.5,0-1-0.4-1-1V2.1c0-0.5,0.4-0.8,0.8-0.8h5c3.1,0,4.3,2.3,4.3,4.5
		c0,2.3-1.2,4.5-4.3,4.5H4.8V14.9z M4.9,3.1v5.4h3.7c1.8,0,2.5-1.3,2.5-2.7c0-1.3-0.7-2.7-2.4-2.7H4.9z"/>
	<path class="st0" d="M19.6,7.6c-1.9,0-2.7,2-2.7,4.6v2.7c0,0.5-0.4,1-1,1c-0.5,0-0.9-0.4-0.9-1V6.8c0-0.5,0.4-1,0.9-1
		c0.5,0,1,0.4,1,1v1.3c0.5-1.7,1.4-2.4,2.7-2.4c0.7,0,1.9,0.1,1.7,1.2c-0.1,0.6-0.7,0.7-1.3,0.7C19.9,7.6,19.7,7.6,19.6,7.6z"/>
	<path class="st0" d="M22.2,10.8c0-3.1,2.3-5.1,5.1-5.1c2.8,0,5.1,2,5.1,5.1S30.1,16,27.3,16C24.5,16,22.2,13.9,22.2,10.8z
		 M30.5,10.8c0-2-1.5-3.2-3.2-3.2s-3.2,1.2-3.2,3.2c0,2,1.5,3.3,3.2,3.3S30.5,12.8,30.5,10.8z"/>
	<path class="st0" d="M39.3,18.9c2.1,0,3.5-1.2,3.5-4.5c0-0.1,0-0.1,0-0.2c-0.6,1.2-2.1,1.8-3.4,1.8c-2.7,0-5-2-5-5.1
		c0-3.1,2.3-5.1,5-5.1c1.4,0,2.8,0.6,3.4,1.7V6.8c0-0.5,0.4-1,0.9-1c0.5,0,1,0.4,1,1v7.5c0,4.6-2.1,6.4-5.4,6.4c-1.6,0-3-0.7-4-2
		c-0.3-0.4-0.1-1,0.3-1.2c0.4-0.3,0.9,0,1.3,0.4C37.5,18.5,38.4,18.9,39.3,18.9z M39.5,7.6c-1.8,0-3.2,1.3-3.2,3.3
		c0,2,1.4,3.2,3.2,3.2c1.6,0,3.3-1.2,3.3-3.2C42.7,8.8,41.2,7.6,39.5,7.6z"/>
	<path class="st0" d="M52.3,7.6c-1.9,0-2.7,2-2.7,4.6v2.7c0,0.5-0.4,1-1,1c-0.5,0-0.9-0.4-0.9-1V6.8c0-0.5,0.4-1,0.9-1
		c0.5,0,1,0.4,1,1v1.3c0.5-1.7,1.4-2.4,2.7-2.4c0.7,0,1.9,0.1,1.7,1.2c-0.1,0.6-0.7,0.7-1.3,0.7C52.6,7.6,52.4,7.6,52.3,7.6z"/>
	<path class="st0" d="M64,11.6h-7.2c0.2,1.6,1.5,2.7,3.2,2.7c1.2,0,1.8-0.3,2.5-1c0.4-0.4,0.9-0.5,1.3-0.3c0.4,0.3,0.5,0.9,0.2,1.2
		c-0.9,1.2-2.4,1.8-4,1.8c-2.8,0-5-2-5-5.1s2.2-5.1,5-5.1c2.8,0,4.9,2,4.9,5.1C64.8,11.3,64.4,11.6,64,11.6z M62.9,10.1
		c-0.2-1.6-1.4-2.6-3-2.6c-1.6,0-2.9,1-3.1,2.6H62.9z"/>
	<path class="st0" d="M70.2,14.3c1,0,1.7-0.5,1.7-1.3c0-0.7-0.6-1.1-1.3-1.2l-1.3-0.3c-1.7-0.4-2.6-1.3-2.6-2.8
		c0-1.6,1.4-2.9,3.4-2.9c1.3,0,2.5,0.5,3.1,1.6c0.1,0.1,0.1,0.3,0.1,0.4c0,0.6-0.6,0.9-0.9,0.9c-0.3,0-0.5-0.1-0.7-0.4
		c-0.4-0.6-0.9-0.8-1.6-0.8c-0.9,0-1.5,0.5-1.5,1.3c0,0.6,0.6,1,1.2,1.1l1.4,0.4c2,0.5,2.5,1.7,2.5,2.9c0,1.8-1.8,2.9-3.8,2.9
		c-1.5,0-3.1-0.8-3.5-2.4c0-0.1,0-0.2,0-0.3c0-0.5,0.5-0.8,0.9-0.8c0.3,0,0.7,0.2,0.8,0.5C68.4,13.8,69.2,14.3,70.2,14.3z"/>
	<path class="st0" d="M79.3,14.3c1,0,1.7-0.5,1.7-1.3c0-0.7-0.6-1.1-1.3-1.2l-1.3-0.3c-1.7-0.4-2.6-1.3-2.6-2.8
		c0-1.6,1.4-2.9,3.4-2.9c1.3,0,2.5,0.5,3.1,1.6c0.1,0.1,0.1,0.3,0.1,0.4c0,0.6-0.6,0.9-0.9,0.9c-0.3,0-0.5-0.1-0.7-0.4
		c-0.4-0.6-0.9-0.8-1.6-0.8c-0.9,0-1.5,0.5-1.5,1.3c0,0.6,0.6,1,1.2,1.1l1.4,0.4c2,0.5,2.5,1.7,2.5,2.9c0,1.8-1.8,2.9-3.8,2.9
		c-1.5,0-3.1-0.8-3.5-2.4c0-0.1,0-0.2,0-0.3c0-0.5,0.5-0.8,0.9-0.8c0.3,0,0.7,0.2,0.8,0.5C77.5,13.8,78.3,14.3,79.3,14.3z"/>
	<path class="st0" d="M86.2,1.1c0.7,0,1.3,0.5,1.3,1.2s-0.6,1.2-1.3,1.2c-0.7,0-1.3-0.5-1.3-1.2S85.5,1.1,86.2,1.1z M87.1,6.8
		c0-0.5-0.4-1-1-1c-0.5,0-0.9,0.4-0.9,1v8.1c0,0.5,0.4,1,0.9,1c0.5,0,1-0.4,1-1V6.8z"/>
	<path class="st0" d="M95.1,15c-0.2,0.6-0.6,0.9-1.2,0.9h-0.1c-0.6,0-1-0.3-1.2-0.9l-3.3-7.9c-0.2-0.5,0.1-1.1,0.6-1.2
		c0.5-0.1,1,0.1,1.2,0.6l2.8,7l2.7-7c0.2-0.5,0.7-0.8,1.2-0.6c0.5,0.1,0.8,0.7,0.6,1.2L95.1,15z"/>
	<path class="st0" d="M108.8,11.6h-7.2c0.2,1.6,1.5,2.7,3.2,2.7c1.2,0,1.8-0.3,2.5-1c0.4-0.4,0.9-0.5,1.3-0.3
		c0.4,0.3,0.5,0.9,0.2,1.2c-0.9,1.2-2.4,1.8-4,1.8c-2.8,0-5-2-5-5.1s2.2-5.1,5-5.1s4.9,2,4.9,5.1C109.6,11.3,109.2,11.6,108.8,11.6z
		 M107.7,10.1c-0.2-1.6-1.4-2.6-3-2.6c-1.6,0-2.9,1-3.1,2.6H107.7z"/>
	<path class="st0" d="M116.7,8.6c0-4.1,3.2-7.4,7.3-7.4c1.6,0,4.5,0.8,4.5,2.1c0,0.5-0.4,0.9-0.9,0.9c-0.3,0-0.5-0.1-0.7-0.2
		c-0.8-0.6-1.9-0.9-3-0.9c-3,0-5.4,2.5-5.4,5.6s2.3,5.5,5.4,5.5c2.6,0,4.6-1.5,4.7-3.9h-3.5c-0.5,0-0.9-0.4-0.9-0.9
		c0-0.5,0.4-0.8,0.9-0.8h4.7c0.6,0,0.8,0.3,0.8,1c0,3.9-2.8,6.5-6.7,6.5C119.9,16,116.7,12.7,116.7,8.6z"/>
	<path class="st0" d="M136.5,13.1l2.7-6.6c0.2-0.5,0.8-0.7,1.2-0.5c0.5,0.2,0.7,0.8,0.5,1.2L135.6,20c-0.2,0.5-0.7,0.7-1.2,0.5
		c-0.5-0.2-0.7-0.8-0.5-1.2l1.6-3.8L132,7.1c-0.2-0.5,0.1-1.1,0.6-1.2c0.5-0.1,1,0.1,1.2,0.6L136.5,13.1z"/>
	<path class="st0" d="M143.2,6.8c0-0.5,0.4-1,0.9-1c0.5,0,1,0.4,1,1v0.6c0.5-1.1,1.9-1.6,2.7-1.7c0.4,0,0.7,0,1.1,0.1
		c1.2,0.2,2.1,0.9,2.6,2c0.9-1.7,2.4-2,3.4-2c2.5,0,3.8,1.6,3.8,4.3v4.8c0,0.5-0.4,1-1,1c-0.5,0-0.9-0.4-0.9-1v-4.7
		c0-1.6-0.8-2.6-2.2-2.6c-1.6,0-2.6,1.2-2.6,2.9v4.4c0,0.5-0.4,1-1,1c-0.5,0-0.9-0.4-0.9-1v-4.7c0-1.6-0.8-2.6-2.1-2.6
		c-1.4,0-2.7,0.8-2.7,2.9v4.4c0,0.5-0.4,1-1,1c-0.5,0-0.9-0.4-0.9-1V6.8z"/>
</g>
<g>
	<path class="st1" d="M8,27.7L7.9,28c0.9-0.6,1.7-1.3,2.2-2.4c0,0,0.1-0.3,0.3-0.3s0.5,0.2,0.5,0.4c0,0.2-0.2,0.5-0.2,0.5
		c-0.8,1.4-2,2.1-3.1,2.7c-0.4,1.6-0.9,3.1-1,3.5c-0.2,0.5-1,0.7-1.6,0.7c-0.7,0-1.8-0.9-1.8-1.4c0-0.9,1.3-1.7,2.8-2.7
		c0.2-0.8,0.4-1.4,0.4-1.4C5.9,28.3,5.3,29,4.8,29c-0.7,0-1.8-0.8-1.8-1.4c0-0.7,0.9-4.1,1.2-5c0.1-0.2,0.2-0.3,0.3-0.3
		c0.3,0,1.2,0.5,1.2,0.7c0,0.1,0,0.3-0.1,0.3c-0.1,0.4-1,3.4-1,4c0,0.2,0.3,0.4,0.4,0.4c0.6,0,1.4-1.2,1.6-1.7c0.4-1,0.8-3,1-3.5
		c0.1-0.2,0.2-0.3,0.3-0.3c0.3,0,1.2,0.5,1.2,0.7c0,0.1,0,0.3-0.1,0.3C8.9,24,8.4,25.9,8,27.7z M5.7,30.1c-1,0.6-1.6,1.2-1.6,1.6
		c0,0.2,0.2,0.4,0.4,0.4c0.2,0,0.6-0.2,0.8-0.5C5.4,31.3,5.5,30.8,5.7,30.1z"/>
	<path class="st1" d="M14.6,27.9c-0.2,0-0.4,0-0.6,0c-0.5,0.6-1,1-1.6,1c-1,0-2.6-0.9-2.6-1.9c0-1.9,1.4-4.7,2.9-4.7
		c1.1,0,2.6,1,2.6,1.9c0,0.7-0.3,1.8-0.7,2.7c0.1,0,0.2,0.1,0.4,0.1c1,0,1.7-1.4,1.7-1.4s0.1-0.3,0.3-0.3c0.2,0,0.5,0.2,0.5,0.4
		c0,0.2-0.2,0.5-0.2,0.5S16.4,27.9,14.6,27.9z M12.2,28c0.2,0,0.3-0.1,0.5-0.4c-0.1-0.1-0.2-0.2-0.2-0.3c0-0.3,0.6-0.9,0.9-0.9
		c0.3-0.8,0.6-1.8,0.6-2.4c0-0.3-0.4-0.6-0.7-0.6c-0.7,0-1.9,2.4-1.9,3.9C11.5,27.7,11.9,28,12.2,28z"/>
	<path class="st1" d="M19.9,28c0,0-1.3,1-1.9,1c-0.7,0-1.8-0.8-1.8-1.4c0-0.7,1-4.1,1.2-5c0.1-0.2,0.2-0.3,0.3-0.3
		c0.3,0,1.2,0.5,1.2,0.7c0,0.1,0,0.3-0.1,0.3c-0.1,0.4-1,3.4-1,4c0,0.2,0.3,0.4,0.4,0.4c0.6,0,1.6-1.2,1.7-1.7
		c0.4-1.1,0.8-2.9,1-3.5c0.1-0.2,0.2-0.3,0.3-0.3c0.3,0,1.2,0.5,1.2,0.7c0,0.1,0,0.3-0.1,0.3c-0.1,0.4-1.1,3.4-1.1,4.1
		c0,0.2,0.2,0.4,0.4,0.4c0.4,0,1.2-1.1,1.9-2.3c0,0,0.1-0.3,0.3-0.3c0.2,0,0.5,0.2,0.5,0.4c0,0.2-0.2,0.5-0.2,0.5
		c-0.8,1.4-1.6,2.7-2.6,2.7C20.9,29,20,28.4,19.9,28z"/>
	<path class="st1" d="M28.9,25.6c0,0,0.1-0.3,0.3-0.3c0.2,0,0.5,0.2,0.5,0.4c0,0.2-0.2,0.5-0.2,0.5c-0.8,1.4-1.6,2.7-2.6,2.7
		c-0.6,0-1.8-0.5-1.8-1.1c0-1.1,0.7-3.1,0.7-3.7c0-0.2-0.6-0.3-0.6-0.3s-0.5,1.1-1.2,2.4c0,0-0.1,0.3-0.3,0.3
		c-0.2,0-0.5-0.2-0.5-0.4c0-0.2,0.2-0.5,0.2-0.5c0.5-0.9,1-2.2,1-2.2S24,23.1,24,22.6c0-0.5,0.6-1.6,0.9-1.6c0.4,0,1.1,0.4,1.1,0.8
		c0,0.3-0.2,0.6-0.2,1c0,0.4,1.8,0.5,1.8,1.1c0,0.5-0.8,3-0.8,3.8c0,0.2,0.1,0.3,0.3,0.3C27.5,28,28.2,26.9,28.9,25.6z"/>
	<path class="st1" d="M40.1,28c0.4,0,1.2-1.1,1.9-2.3c0,0,0.1-0.3,0.3-0.3c0.2,0,0.5,0.2,0.5,0.4c0,0.2-0.2,0.5-0.2,0.5
		c-0.8,1.4-1.6,2.7-2.6,2.7c-0.6,0-1.9-0.6-1.9-1.2c0-0.7,0.8-3.1,0.8-3.7c0-0.2-0.2-0.5-0.4-0.5c-0.3,0-1.1,0.5-1.3,0.9
		c-0.3,0.9-0.9,3.7-1,4.1c0,0.2-0.1,0.3-0.3,0.3c-0.3,0-1.1-0.4-1.1-0.7c0-0.4,0.9-3.9,0.9-4.2c0-0.3-0.2-0.4-0.4-0.4
		c-0.3,0-1.1,0.4-1.3,0.9c-0.4,0.9-1,3.8-1.1,4.2c-0.1,0.2-0.1,0.3-0.3,0.3c-0.3,0-1.1-0.4-1.1-0.7c0-0.4,1.1-4.6,1.4-5.5
		c0.1-0.2,0.3-0.3,0.5-0.3c0.2,0,0.9,0.8,0.9,0.8s1.2-0.8,1.9-0.8c0.6,0,1.3,0.9,1.3,0.9s1.3-0.9,2.1-0.9c0.4,0,1.2,0.6,1.2,1.1
		c0,0.7-0.9,3.4-0.9,4.1C39.7,27.8,40,28,40.1,28z"/>
	<path class="st1" d="M46.4,27.9c-0.2,0-0.4,0-0.6,0c-0.5,0.6-1,1-1.6,1c-1,0-2.6-0.9-2.6-1.9c0-1.9,1.4-4.7,2.9-4.7
		c1.1,0,2.6,1,2.6,1.9c0,0.7-0.3,1.8-0.7,2.7c0.1,0,0.2,0.1,0.4,0.1c1,0,1.7-1.4,1.7-1.4s0.1-0.3,0.3-0.3c0.2,0,0.5,0.2,0.5,0.4
		c0,0.2-0.2,0.5-0.2,0.5S48.2,27.9,46.4,27.9z M44,28c0.2,0,0.4-0.1,0.5-0.4c-0.1-0.1-0.2-0.2-0.2-0.3c0-0.3,0.6-0.9,0.9-0.9
		c0.4-0.8,0.6-1.8,0.6-2.4c0-0.3-0.4-0.6-0.7-0.6c-0.7,0-1.9,2.4-1.9,3.9C43.4,27.7,43.7,28,44,28z"/>
	<path class="st1" d="M50.9,29c-1.2,0-2.7-1-2.7-2.1c0-1.1,1-4.6,1.7-6.9c0.1-0.2,0.2-0.3,0.3-0.3c0.3,0,1.2,0.5,1.2,0.8
		c0,0.1-0.1,0.2-0.1,0.4c-0.3,1.1-0.7,2.3-0.7,2.3s0.8-0.7,1.6-0.7c0.6,0,1.6,0.7,1.6,1.5c0,0.8-0.3,2-0.8,3.1
		c0.1,0,0.2,0.1,0.4,0.1c1,0,1.7-1.4,1.7-1.4s0.1-0.3,0.3-0.3c0.2,0,0.5,0.2,0.5,0.4c0,0.2-0.2,0.5-0.2,0.5s-0.9,1.7-2.6,1.7
		c-0.2,0-0.4,0-0.6,0C52.1,28.5,51.5,29,50.9,29z M50.4,28c0.2,0,0.4-0.2,0.6-0.4c-0.2-0.1-0.4-0.2-0.4-0.4c0-0.3,0.6-0.8,0.9-0.8
		c0,0,0.1,0,0.1,0c0.3-0.9,0.6-1.8,0.6-2.4c0-0.3-0.3-0.6-0.5-0.6c-0.4,0-1.1,0.5-1.3,1.1c-0.3,0.8-0.6,1.9-0.6,2.7
		C49.8,27.6,50.1,28,50.4,28z"/>
	<path class="st1" d="M55.9,22.7c0.1-0.2,0.3-0.3,0.5-0.3c0.2,0,1.1,0.5,1.1,0.8c0,0.3-1.1,3.5-1.1,4.5c0,0.2,0.2,0.4,0.4,0.4
		c0.4,0,1.2-1.1,1.9-2.3c0,0,0.1-0.3,0.3-0.3c0.2,0,0.5,0.2,0.5,0.4c0,0.2-0.2,0.5-0.2,0.5c-0.8,1.4-1.6,2.7-2.6,2.7
		c-0.6,0-1.9-0.6-1.9-1.2C54.7,27.1,55.7,23.5,55.9,22.7z M56.6,21.1c0-0.5,0.3-1.4,0.8-1.4c0.4,0,1,0.2,1,0.6
		c0,0.5-0.3,1.4-0.8,1.4C57.2,21.7,56.6,21.5,56.6,21.1z"/>
	<path class="st1" d="M60.1,29c-0.6,0-2-0.6-2-1.2c0-0.8,1.6-6.4,2-7.7c0.1-0.2,0.2-0.3,0.3-0.3c0.3,0,1.2,0.5,1.2,0.8
		c0,0.1,0,0.2-0.1,0.4c-0.1,0.4-1.8,6.1-1.8,6.8c0,0.2,0.4,0.4,0.5,0.4c0.4,0,1.2-1.1,1.9-2.3c0,0,0.1-0.3,0.3-0.3
		c0.2,0,0.5,0.2,0.5,0.4c0,0.2-0.2,0.5-0.2,0.5C62,27.7,61.1,29,60.1,29z"/>
	<path class="st1" d="M64.5,28c0.7,0,1.3-0.5,1.8-1.2c0,0,0.2-0.3,0.3-0.3c0.2,0,0.5,0.3,0.5,0.4s-0.2,0.5-0.2,0.5
		c-0.6,0.7-1.5,1.5-2.7,1.5c-1,0-2.4-1-2.4-1.9c0-1.6,1.6-4.7,2.9-4.7c0.6,0,2,0.8,2,1.4c0,0.8-0.9,2.9-1.8,2.9
		c-0.6,0-1.3-0.2-1.3-0.2s-0.1,0.2-0.1,0.5C63.5,27.4,64.1,28,64.5,28z M65.5,23.7c0-0.1-0.2-0.3-0.4-0.3c-0.5,0-1.3,1.7-1.4,2.3
		C64.9,25.8,65.5,24.3,65.5,23.7z"/>
	<path class="st1" d="M73.1,29c-1.1,0-1.8-0.6-1.8-0.6s-0.7,2.9-0.8,3.6c0,0.2-0.1,0.3-0.4,0.3c-0.3,0-1.1-0.4-1.1-0.7
		c0-0.5,1.7-7,2.2-8.9c0-0.2,0.3-0.3,0.4-0.3c0.2,0,1,0.8,1,0.8s0.8-0.8,1.6-0.8c0.6,0,1.7,0.8,1.7,1.5c0,0.8-0.3,2-0.8,3.1
		c0,0,0.2,0.1,0.4,0.1c1,0,1.7-1.4,1.7-1.4s0.1-0.3,0.3-0.3c0.2,0,0.5,0.2,0.5,0.4c0,0.2-0.2,0.5-0.2,0.5s-0.9,1.7-2.6,1.7
		c-0.2,0-0.5,0-0.5,0C74.2,28.5,73.6,29,73.1,29z M72.7,27.9c0.1,0,0.3-0.1,0.4-0.3c-0.3-0.1-0.4-0.2-0.4-0.4c0-0.3,0.6-0.9,0.9-0.9
		c0.1,0,0.1,0,0.2,0c0.3-0.9,0.5-1.8,0.5-2.4c0-0.3-0.3-0.6-0.5-0.6c-0.3,0-1.2,0.7-1.4,1.3c-0.3,0.8-0.6,1.9-0.6,2.4
		C71.7,27.5,72.2,27.9,72.7,27.9z"/>
	<path class="st1" d="M79.8,22.4c0.7,0,2,0.7,2,1.3c0,0.7-0.9,2.9-1.8,2.9c-0.6,0-1.3-0.2-1.3-0.2s-0.1,0.2-0.1,0.7
		c0,0.3,0.6,0.9,1.2,0.9c0.8,0,1.9-0.5,2.8-2.3c0,0,0.1-0.3,0.3-0.3c0.2,0,0.5,0.2,0.5,0.4c0,0.2-0.2,0.5-0.2,0.5
		c-1,1.8-2.2,2.7-3.3,2.7c-1.2,0-2.9-0.9-2.9-2C76.9,25.4,78.5,22.4,79.8,22.4z M80.7,23.8c0-0.2-0.2-0.4-0.4-0.4
		c-0.5,0-1.4,1.7-1.5,2.3C80.1,25.8,80.7,24.2,80.7,23.8z"/>
	<path class="st1" d="M87.9,25.6c0,0,0.1-0.3,0.3-0.3c0.2,0,0.5,0.2,0.5,0.4c0,0.2-0.2,0.5-0.2,0.5c-0.8,1.4-1.6,2.7-2.6,2.7
		c-0.6,0-1.8-0.5-1.8-1.1c0-1.1,0.7-3.1,0.7-3.7c0-0.2-0.6-0.3-0.6-0.3s-0.5,1.1-1.2,2.4c0,0-0.1,0.3-0.3,0.3
		c-0.2,0-0.5-0.2-0.5-0.4c0-0.2,0.2-0.5,0.2-0.5c0.5-0.9,1-2.2,1-2.2s-0.6-0.4-0.6-0.8c0-0.5,0.6-1.6,0.9-1.6c0.4,0,1.1,0.4,1.1,0.8
		c0,0.3-0.2,0.6-0.2,1c0,0.4,1.8,0.5,1.8,1.1c0,0.5-0.8,3-0.8,3.8c0,0.2,0.1,0.3,0.3,0.3C86.4,28,87.2,26.9,87.9,25.6z"/>
	<path class="st1" d="M93.5,25.6c0,0,0.1-0.3,0.3-0.3c0.2,0,0.5,0.2,0.5,0.4c0,0.2-0.2,0.5-0.2,0.5C93.3,27.7,92,29,89.9,29
		c-1.4,0-2.9-1.5-2.9-2.4c0-0.7,1.2-1.2,1.2-1.2s1.3-2.1,1.8-2.8c0.1-0.2,0.3-0.3,0.4-0.3c0.2,0,1,0.5,1,0.8c0,1.4,0.5,2.6,0.5,3.6
		c0,0.5-0.4,1.1-0.4,1.1C92.2,27.5,92.8,26.9,93.5,25.6z M88.7,26.5c0,0.7,0.4,1.4,0.8,1.4c0.5,0,0.8-0.5,0.8-1c0-1-0.3-2.1-0.3-2.8
		C90,24.1,88.7,26.1,88.7,26.5z"/>
	<path class="st1" d="M98,27.9c-0.2,0-0.4,0-0.6,0c-0.5,0.6-1,1-1.6,1c-1,0-2.6-0.9-2.6-1.9c0-1.9,1.4-4.7,2.9-4.7
		c1.1,0,2.6,1,2.6,1.9c0,0.7-0.3,1.8-0.7,2.7c0.1,0,0.2,0.1,0.4,0.1c1,0,1.7-1.4,1.7-1.4s0.1-0.3,0.3-0.3c0.2,0,0.5,0.2,0.5,0.4
		c0,0.2-0.2,0.5-0.2,0.5S99.8,27.9,98,27.9z M95.6,28c0.2,0,0.3-0.1,0.5-0.4C96,27.5,96,27.4,96,27.3c0-0.3,0.6-0.9,0.9-0.9
		c0.3-0.8,0.6-1.8,0.6-2.4c0-0.3-0.4-0.6-0.7-0.6c-0.7,0-1.9,2.4-1.9,3.9C95,27.7,95.3,28,95.6,28z"/>
	<path class="st1" d="M104.9,28c0.4,0,1.2-1.1,1.9-2.3c0,0,0.1-0.3,0.3-0.3c0.2,0,0.5,0.2,0.5,0.4c0,0.2-0.2,0.5-0.2,0.5
		c-0.8,1.4-1.6,2.7-2.6,2.7c-0.6,0-1.9-0.6-1.9-1.2c0-0.9,0.8-3.1,0.8-3.7c0-0.2-0.2-0.5-0.4-0.5c-0.3,0-1.1,0.4-1.3,0.9
		c-0.4,0.9-1,3.8-1.1,4.2c-0.1,0.2-0.1,0.3-0.3,0.3c-0.3,0-1.1-0.4-1.1-0.7c0-0.4,1.1-4.6,1.4-5.6c0.1-0.2,0.3-0.3,0.5-0.3
		c0.2,0,0.9,0.8,0.9,0.8s1.4-0.8,2.1-0.8c0.4,0,1.2,0.6,1.2,1.1c0,0.7-0.9,3.4-0.9,4.1C104.6,27.8,104.8,28,104.9,28z"/>
	<path class="st1" d="M114,25.4c0.2,0,0.5,0.2,0.5,0.4c0,0.2-0.2,0.5-0.2,0.5c-0.8,1.4-1.6,2.7-2.6,2.7c-0.6,0-1.8-0.5-1.9-0.9
		c0,0-0.8,0.9-1.6,0.9c-0.6,0-1.8-0.9-1.8-1.6c0-1.8,1.7-4.9,2.9-4.9c1.1,0,1.8,0.8,1.8,0.8c0.4,0,1.2,0.1,1.2,0.4
		c0,0.5-1,2.8-1,3.9c0,0.2,0.3,0.4,0.4,0.4c0.4,0,1.2-1.1,1.9-2.3C113.7,25.6,113.8,25.4,114,25.4z M109.9,23.5
		c-0.7,0-1.8,2.6-1.8,3.8c0,0.3,0.3,0.6,0.5,0.6c0.3,0,1-0.5,1.4-1.3c0.3-0.6,0.7-2.3,0.7-2.7C110.7,23.7,110.1,23.5,109.9,23.5z"/>
	<path class="st1" d="M115.2,29c-0.6,0-2-0.6-2-1.2c0-0.8,1.6-6.4,2-7.7c0.1-0.2,0.2-0.3,0.3-0.3c0.3,0,1.2,0.5,1.2,0.8
		c0,0.1,0,0.2-0.1,0.4c-0.1,0.4-1.8,6.1-1.8,6.8c0,0.2,0.4,0.4,0.5,0.4c0.4,0,1.2-1.1,1.9-2.3c0,0,0.1-0.3,0.3-0.3
		c0.2,0,0.5,0.2,0.5,0.4c0,0.2-0.2,0.5-0.2,0.5C117.1,27.7,116.2,29,115.2,29z"/>
	<path class="st1" d="M122.7,22.5h1.2c0.1,0,0.2,0,0.2,0.1c0,0.2-0.3,0.7-0.5,0.7h-1.1c-0.5,1.6-1,3.5-1,3.8c0,0.4,0.4,0.8,0.8,0.8
		c0.4,0,1.2-1.1,1.9-2.3c0,0,0.1-0.3,0.3-0.3c0.2,0,0.5,0.2,0.5,0.4c0,0.2-0.2,0.5-0.2,0.5c-0.8,1.4-1.6,2.7-2.6,2.7
		c-1,0-2.3-0.7-2.3-1.4c0-0.4,0.5-2.4,1-4.2h-0.5c-0.1,0-0.2-0.1-0.2-0.1c0-0.2,0.3-0.7,0.5-0.7h0.4c0.3-1,0.5-1.8,0.6-2.1
		c0.1-0.2,0.2-0.3,0.3-0.3c0.3,0,1.2,0.5,1.2,0.8c0,0.1,0,0.2-0.1,0.3L122.7,22.5z"/>
	<path class="st1" d="M129.5,25.6c0,0,0.1-0.3,0.3-0.3c0.2,0,0.5,0.2,0.5,0.4c0,0.2-0.2,0.5-0.2,0.5c-0.8,1.4-1.6,2.7-2.6,2.7
		c-0.6,0-1.8-0.5-1.8-1.1c0-1.1,0.7-3.1,0.7-3.7c0-0.2-0.6-0.3-0.6-0.3s-0.5,1.1-1.2,2.4c0,0-0.1,0.3-0.3,0.3
		c-0.2,0-0.5-0.2-0.5-0.4c0-0.2,0.2-0.5,0.2-0.5c0.5-0.9,1-2.2,1-2.2s-0.6-0.4-0.6-0.8c0-0.5,0.6-1.6,0.9-1.6c0.4,0,1.1,0.4,1.1,0.8
		c0,0.3-0.2,0.6-0.2,1c0,0.4,1.8,0.5,1.8,1.1c0,0.5-0.8,3-0.8,3.8c0,0.2,0.1,0.3,0.3,0.3C128,28,128.8,26.9,129.5,25.6z"/>
	<path class="st1" d="M136.7,25.4c0.2,0,0.5,0.2,0.5,0.4c0,0.2-0.2,0.5-0.2,0.5c-0.8,1.4-1.6,2.7-2.6,2.7c-0.6,0-1.8-0.5-1.9-0.9
		c0,0-0.8,0.9-1.6,0.9c-0.6,0-1.8-0.9-1.8-1.6c0-1.8,1.7-4.9,2.9-4.9c1.1,0,1.8,0.8,1.8,0.8c0.4,0,1.2,0.1,1.2,0.4
		c0,0.5-1,2.8-1,3.9c0,0.2,0.3,0.4,0.4,0.4c0.4,0,1.2-1.1,1.9-2.3C136.4,25.6,136.5,25.4,136.7,25.4z M132.6,23.5
		c-0.7,0-1.8,2.6-1.8,3.8c0,0.3,0.3,0.6,0.5,0.6c0.3,0,1-0.5,1.4-1.3c0.3-0.6,0.7-2.3,0.7-2.7C133.3,23.7,132.8,23.5,132.6,23.5z"/>
	<path class="st1" d="M137.2,22.7c0.1-0.2,0.3-0.3,0.5-0.3c0.2,0,1.1,0.5,1.1,0.8c0,0.3-1.1,3.5-1.1,4.5c0,0.2,0.2,0.4,0.4,0.4
		c0.4,0,1.2-1.1,1.9-2.3c0,0,0.1-0.3,0.3-0.3c0.2,0,0.5,0.2,0.5,0.4c0,0.2-0.2,0.5-0.2,0.5c-0.8,1.4-1.6,2.7-2.6,2.7
		c-0.6,0-1.9-0.6-1.9-1.2C135.9,27.1,136.9,23.5,137.2,22.7z M137.8,21.1c0-0.5,0.3-1.4,0.8-1.4c0.3,0,1,0.2,1,0.6
		c0,0.5-0.3,1.4-0.8,1.4C138.5,21.7,137.8,21.5,137.8,21.1z"/>
	<path class="st1" d="M144.7,28c0.4,0,1.2-1.1,1.9-2.3c0,0,0.1-0.3,0.3-0.3c0.2,0,0.5,0.2,0.5,0.4c0,0.2-0.2,0.5-0.2,0.5
		c-0.8,1.4-1.6,2.7-2.6,2.7c-0.6,0-1.9-0.6-1.9-1.2c0-0.9,0.8-3.1,0.8-3.7c0-0.2-0.2-0.5-0.4-0.5c-0.3,0-1.1,0.4-1.3,0.9
		c-0.4,0.9-1,3.8-1.1,4.2c-0.1,0.2-0.1,0.3-0.3,0.3c-0.3,0-1.1-0.4-1.1-0.7c0-0.4,1.1-4.6,1.4-5.6c0.1-0.2,0.3-0.3,0.5-0.3
		c0.2,0,0.9,0.8,0.9,0.8s1.4-0.8,2.1-0.8c0.4,0,1.2,0.6,1.2,1.1c0,0.7-0.9,3.4-0.9,4.1C144.4,27.8,144.6,28,144.7,28z"/>
	<path class="st1" d="M149.2,22.4c0.7,0,2,0.7,2,1.3c0,0.7-0.9,2.9-1.8,2.9c-0.6,0-1.3-0.2-1.3-0.2s-0.1,0.2-0.1,0.7
		c0,0.3,0.6,0.9,1.2,0.9c0.8,0,1.9-0.5,2.8-2.3c0,0,0.1-0.3,0.3-0.3c0.2,0,0.5,0.2,0.5,0.4c0,0.2-0.2,0.5-0.2,0.5
		c-1,1.8-2.2,2.7-3.3,2.7c-1.2,0-2.9-0.9-2.9-2C146.3,25.4,147.9,22.4,149.2,22.4z M150.1,23.8c0-0.2-0.2-0.4-0.4-0.4
		c-0.5,0-1.4,1.7-1.5,2.3C149.5,25.8,150.1,24.2,150.1,23.8z"/>
	<path class="st1" d="M157.3,25.6c0,0,0.1-0.3,0.3-0.3c0.2,0,0.5,0.2,0.5,0.4c0,0.2-0.2,0.5-0.2,0.5c-0.8,1.4-1.6,2.7-2.6,2.7
		c-0.6,0-1.8-0.5-1.8-1.1c0-1.1,0.7-3.1,0.7-3.7c0-0.2-0.6-0.3-0.6-0.3s-0.5,1.1-1.2,2.4c0,0-0.1,0.3-0.3,0.3
		c-0.2,0-0.5-0.2-0.5-0.4c0-0.2,0.2-0.5,0.2-0.5c0.5-0.9,1-2.2,1-2.2s-0.6-0.4-0.6-0.8c0-0.5,0.6-1.6,0.9-1.6c0.4,0,1.1,0.4,1.1,0.8
		c0,0.3-0.2,0.6-0.2,1c0,0.4,1.8,0.5,1.8,1.1c0,0.5-0.8,3-0.8,3.8c0,0.2,0.1,0.3,0.3,0.3C155.8,28,156.6,26.9,157.3,25.6z"/>
</g>
</svg>
